Coordinates
version=1
nRows=5
nColumns=40
inDegrees=yes

Units are S.I. units (second, meters, Newtons, ...)
Angles are in degrees.

endheader
time	pelvis_tilt	pelvis_list	pelvis_rotation	pelvis_tx	pelvis_ty	pelvis_tz	hip_flexion_r	hip_adduction_r	hip_rotation_r	knee_angle_r	knee_angle_r_beta	ankle_angle_r	subtalar_angle_r	mtp_angle_r	hip_flexion_l	hip_adduction_l	hip_rotation_l	knee_angle_l	knee_angle_l_beta	ankle_angle_l	subtalar_angle_l	mtp_angle_l	lumbar_extension	lumbar_bending	lumbar_rotation	arm_flex_r	arm_add_r	arm_rot_r	elbow_flex_r	pro_sup_r	wrist_flex_r	wrist_dev_r	arm_flex_l	arm_add_l	arm_rot_l	elbow_flex_l	pro_sup_l	wrist_flex_l	wrist_dev_l
     29.03000000	     -6.99670147	     -5.21719427	     -1.76731816	      1.06509507	      0.93299054	      0.39959328	     34.57300321	     -7.90113969	     -7.97148435	     67.86279992	     67.86279992	      4.69578329	    -14.03996960	     -0.41458952	     18.22949760	     -6.93943336	     -5.74919692	     22.57373714	     22.57373714	     15.19240185	     -0.02312080	      0.84563155	    -10.88102512	      2.15488379	      1.84005825	     13.72418847	    -14.91248115	      9.61823014	     76.54968014	     45.74618854	      0.00000000	      0.00000000	     10.39372232	    -14.43717556	     -4.11177422	     36.98281653	     45.76178232	      0.00000000	      0.00000000
     29.04171429	     -6.97075451	     -5.19316377	     -1.86373200	      1.06408682	      0.93284456	      0.39943547	     35.54587137	     -7.84732337	     -7.67985680	     66.05083770	     66.05083770	      4.57536946	    -13.32873453	     -0.99632786	     17.44665638	     -6.86152384	     -5.76149284	     22.24701423	     22.24701423	     15.65676261	      0.06326961	      0.59447933	    -10.93388342	      2.15588596	      1.90461254	     12.16655140	    -15.41045342	      9.49319678	     72.39193533	     45.85094310	      0.00000000	      0.00000000	     12.85041518	    -14.92651029	     -3.89476808	     35.97938863	     45.81266998	      0.00000000	      0.00000000
     29.05342857	     -6.79323362	     -5.15898240	     -2.01764370	      1.06321741	      0.93275071	      0.39931829	     36.26993324	     -7.78971339	     -7.39724329	     64.13869719	     64.13869719	      4.54223656	    -12.51963182	     -1.11804958	     16.45452191	     -6.78575645	     -5.97098423	     21.86749873	     21.86749873	     16.08957136	      0.02959387	      0.36554269	    -11.20820261	      2.15644959	      2.15045429	     10.16031271	    -16.34299878	      9.46998534	     69.52025934	     45.92773068	      0.00000000	      0.00000000	     14.97767343	    -15.32513149	     -3.91299716	     36.74746684	     45.86098895	      0.00000000	      0.00000000
     29.06514286	     -6.71597938	     -5.12787294	     -2.12173096	      1.06233568	      0.93248882	      0.39923829	     36.93467900	     -7.66577805	     -7.10522832	     61.96066966	     61.96066966	      4.33774147	    -11.89125420	     -1.50263920	     15.57401343	     -6.67357560	     -5.95073864	     21.42477579	     21.42477579	     16.28025550	     -0.14423760	     -0.35154993	    -11.27884752	      2.14609441	      1.93815138	      9.20870830	    -16.05339975	      8.30530578	     63.78237031	     46.12205662	      0.00000000	      0.00000000	     17.17583002	    -15.95559831	     -3.38800038	     36.14093365	     45.87196945	      0.00000000	      0.00000000
     29.07685714	     -6.60914890	     -5.05406124	     -2.25279662	      1.06154224	      0.93221144	      0.39923001	     37.42254912	     -7.57532076	     -6.86371510	     59.54524136	     59.54524136	      4.18547000	    -11.17731322	     -1.50824864	     14.66597848	     -6.51868962	     -5.97383496	     20.99431128	     20.99431128	     16.47973327	     -0.36118440	     -0.98469398	    -11.43556321	      2.08483668	      2.04446525	      8.01720821	    -16.21798435	      7.49613946	     59.19270563	     46.25985704	      0.00000000	      0.00000000	     19.18729202	    -16.46015297	     -2.95594456	     36.31471758	     45.89431404	      0.00000000	      0.00000000
